<?xml version="1.0" standalone="no"?>
<!DOCTYPE svg PUBLIC "-//W3C//DTD SVG 20010904//EN"
 "http://www.w3.org/TR/2001/REC-SVG-20010904/DTD/svg10.dtd">
<svg version="1.0" xmlns="http://www.w3.org/2000/svg"
 width="1280.000000pt" height="1280.000000pt" viewBox="0 0 1280.000000 1280.000000"
 preserveAspectRatio="xMidYMid meet">
<metadata>
Created by potrace 1.15, written by Peter Selinger 2001-2017
</metadata>
<g transform="translate(0.000000,1280.000000) scale(0.100000,-0.100000)"
fill="#000000" stroke="none">
<path d="M7130 10961 c-118 -36 -220 -171 -220 -293 0 -31 4 -67 9 -80 14 -37
83 -98 361 -320 251 -201 933 -747 1102 -883 47 -39 124 -100 170 -136 45 -37
178 -143 295 -237 117 -94 229 -176 249 -182 107 -36 263 62 314 196 39 105
23 182 -51 249 -92 83 -2053 1651 -2092 1673 -40 22 -90 27 -137 13z"/>
<path d="M6790 10471 c-70 -28 -157 -91 -246 -177 -67 -65 -310 -358 -489
-589 -22 -28 -148 -185 -280 -349 -132 -164 -251 -312 -265 -331 -14 -18 -97
-121 -185 -230 -88 -108 -171 -212 -185 -230 -14 -18 -77 -98 -140 -176 -64
-79 -127 -158 -140 -175 -14 -17 -115 -143 -225 -278 -110 -136 -205 -255
-210 -264 -6 -10 -29 -44 -52 -78 -46 -68 -93 -163 -118 -242 -25 -75 -17
-172 15 -208 23 -24 190 -162 395 -324 76 -60 494 -395 1239 -995 165 -132
320 -257 345 -277 25 -21 63 -47 84 -58 34 -19 44 -20 90 -10 131 28 309 175
492 408 66 83 103 129 194 241 74 91 193 240 249 311 95 121 245 305 251 308
7 2 115 -82 201 -157 56 -50 185 -159 315 -266 91 -76 422 -355 491 -415 64
-56 195 -167 289 -245 165 -137 262 -219 290 -244 17 -15 71 -60 120 -101 50
-41 101 -84 115 -96 63 -55 183 -156 265 -223 50 -41 97 -82 105 -91 8 -9 38
-34 65 -56 28 -21 84 -68 126 -104 42 -36 140 -119 219 -185 79 -66 165 -138
190 -161 25 -22 58 -50 73 -61 15 -12 54 -44 85 -71 31 -28 101 -88 156 -134
258 -218 275 -228 310 -193 16 16 315 385 351 434 11 14 53 66 93 115 56 67
72 94 70 114 -3 26 -39 58 -163 147 -30 22 -91 67 -135 100 -133 101 -172 130
-189 140 -9 6 -69 51 -135 100 -65 50 -126 95 -135 100 -9 6 -70 51 -135 100
-65 50 -128 97 -140 105 -12 8 -72 53 -134 100 -63 47 -124 92 -135 100 -26
17 -285 209 -587 434 -118 88 -276 205 -350 260 -74 55 -199 147 -277 205 -78
58 -203 151 -278 206 -74 55 -163 121 -198 147 -34 26 -127 96 -207 155 -80
58 -187 138 -238 176 l-92 69 32 41 c56 71 255 319 302 377 25 30 71 87 103
126 152 186 394 495 431 550 52 76 127 233 141 294 26 111 8 166 -76 232 -30
23 -94 74 -141 113 -48 38 -269 216 -492 394 -223 179 -517 415 -654 526 -260
208 -328 263 -461 369 -44 35 -116 93 -160 128 -44 36 -90 70 -102 76 -31 17
-91 14 -143 -7z"/>
<path d="M4077 7144 c-126 -32 -232 -166 -232 -294 0 -98 15 -117 216 -275 35
-27 69 -54 75 -60 6 -5 45 -37 88 -70 66 -51 129 -102 251 -204 11 -9 38 -30
60 -46 22 -17 45 -35 50 -41 6 -5 28 -23 50 -39 22 -16 42 -31 45 -34 8 -9 98
-81 151 -121 26 -20 63 -49 81 -66 18 -16 53 -45 78 -64 25 -19 54 -43 65 -52
23 -19 181 -146 270 -215 33 -26 90 -73 126 -103 36 -30 115 -93 174 -140 60
-47 113 -89 119 -95 80 -72 257 -202 292 -215 97 -38 263 72 314 208 25 66 22
134 -7 185 -11 19 -199 177 -448 377 -1682 1350 -1694 1360 -1732 1368 -25 6
-55 4 -86 -4z"/>
<path d="M11618 4398 c-36 -46 -154 -193 -262 -327 -151 -189 -196 -251 -196
-273 0 -25 12 -36 100 -93 125 -81 196 -118 303 -155 152 -53 262 -61 358 -27
47 16 60 27 128 112 87 108 91 116 91 193 0 159 -100 342 -295 540 -84 84
-117 112 -137 112 -19 0 -39 -18 -90 -82z"/>
<path d="M2128 4015 c-149 -41 -268 -173 -297 -329 -6 -33 -11 -99 -11 -146 0
-166 34 -269 118 -359 l47 -50 -395 -3 c-443 -4 -448 -5 -557 -78 -75 -50
-137 -133 -164 -219 -19 -65 -20 -89 -17 -726 l3 -660 32 -67 c54 -115 150
-200 263 -232 50 -15 428 -16 4055 -14 l4000 3 58 23 c66 27 163 111 200 175
57 97 57 95 57 791 0 695 -1 699 -56 793 -60 103 -171 180 -293 203 -30 6
-213 10 -422 10 l-368 0 45 45 c90 91 131 229 121 410 -7 123 -25 185 -78 264
-50 75 -130 134 -217 161 -63 20 -100 20 -3071 19 -2434 -1 -3015 -3 -3053
-14z"/>
</g>
</svg>
