<?xml version="1.0" standalone="no"?>
<!DOCTYPE svg PUBLIC "-//W3C//DTD SVG 20010904//EN"
 "http://www.w3.org/TR/2001/REC-SVG-20010904/DTD/svg10.dtd">
<svg version="1.0" xmlns="http://www.w3.org/2000/svg"
 width="1280.000000pt" height="1272.000000pt" viewBox="0 0 1280.000000 1272.000000"
 preserveAspectRatio="xMidYMid meet">
<g transform="translate(0.000000,1272.000000) scale(0.100000,-0.100000)"
fill="#000000" stroke="none">
<path d="M1733 12695 c-136 -43 -229 -125 -272 -241 -21 -55 -21 -62 -19
-1157 l3 -1102 32 -66 c40 -81 102 -140 191 -182 64 -31 74 -32 210 -35 121
-3 152 -1 210 17 87 26 167 82 215 151 71 103 68 34 65 1251 l-3 1094 -21 45
c-78 162 -236 251 -445 249 -69 0 -113 -7 -166 -24z"/>
<path d="M4740 12704 c-144 -46 -248 -132 -292 -242 l-23 -57 -3 -1055 c-3
-1097 -2 -1143 39 -1222 45 -88 135 -163 237 -197 49 -17 86 -21 190 -21 187
0 273 30 365 129 54 58 81 107 96 179 17 83 15 2118 -3 2193 -32 137 -147 249
-298 290 -65 18 -254 20 -308 3z"/>
<path d="M7702 12695 c-144 -46 -239 -137 -277 -267 -14 -49 -15 -174 -13
-1144 3 -1037 4 -1091 22 -1129 52 -113 152 -198 268 -230 51 -13 94 -16 204
-13 132 3 142 5 206 35 85 40 146 97 189 175 l34 63 3 1107 c2 1101 2 1107
-19 1162 -26 71 -83 144 -145 185 -121 80 -322 104 -472 56z"/>
<path d="M10684 12692 c-126 -42 -196 -99 -252 -205 l-27 -52 0 -1125 0 -1125
34 -63 c43 -78 104 -135 189 -175 64 -30 74 -32 206 -35 110 -3 153 0 204 13
129 35 235 135 273 256 18 58 19 111 19 1128 0 1160 2 1122 -55 1210 -28 44
-98 111 -145 138 -114 68 -304 82 -446 35z"/>
<path d="M313 10975 c-64 -20 -124 -58 -175 -113 -54 -58 -88 -120 -117 -218
l-21 -71 0 -5032 c0 -5024 0 -5031 20 -5107 47 -173 108 -246 283 -334 67 -34
147 -71 177 -81 53 -18 234 -19 5995 -19 5894 0 5940 1 5999 20 82 28 134 60
188 118 54 58 88 120 117 218 l21 71 0 5032 0 5031 -21 78 c-25 93 -60 159
-117 223 -35 39 -73 63 -189 121 l-146 73 -414 3 -413 3 0 -435 c0 -392 -2
-440 -18 -493 -39 -123 -128 -220 -267 -289 -124 -61 -193 -74 -413 -74 -196
0 -298 15 -359 52 -51 31 -123 117 -157 188 l-31 65 -5 455 -5 455 -70 5 -70
5 -3 33 -3 32 -790 0 -789 0 0 -423 c0 -348 -3 -433 -15 -482 -46 -177 -201
-310 -423 -366 -74 -19 -105 -20 -295 -17 -262 6 -289 13 -382 99 -45 42 -75
82 -97 127 l-33 67 -2 440 c-2 242 -5 450 -8 463 -5 20 -11 22 -75 22 l-69 0
-3 33 -3 32 -790 0 -790 0 -5 -460 -5 -460 -32 -60 c-66 -126 -179 -217 -334
-270 -80 -28 -94 -29 -292 -33 -167 -3 -223 -1 -282 13 -123 27 -204 97 -268
232 l-32 68 -5 450 -5 450 -67 3 -67 3 -7 34 -6 35 -789 0 -788 0 -3 -457 -3
-458 -33 -67 c-67 -138 -234 -257 -412 -294 -108 -22 -460 -15 -544 11 -81 25
-172 114 -218 211 l-33 69 -5 455 -5 455 -70 5 -70 5 -3 33 -3 32 -397 -1
c-299 0 -407 -4 -439 -14z m11540 -2283 c19 -19 47 -59 63 -90 l29 -57 0
-3800 0 -3800 -26 -55 c-34 -73 -99 -136 -179 -174 l-65 -31 -5349 0 -5348 0
-38 43 c-21 23 -48 64 -61 90 l-24 47 0 3805 0 3805 24 45 c52 97 118 156 213
190 52 19 168 19 5390 17 l5337 -2 34 -33z"/>
<path d="M10956 8285 c-10 -28 -7 -369 4 -385 9 -13 12 -12 25 5 15 18 16 18
44 2 16 -9 47 -17 69 -17 122 0 153 237 37 286 -37 15 -88 10 -106 -12 -26
-32 -38 -15 -41 58 -3 69 -18 99 -32 63z m189 -157 c25 -29 27 -38 23 -101 -3
-61 -7 -72 -31 -93 -36 -31 -78 -31 -114 0 -26 23 -28 29 -28 99 0 66 3 79 24
101 37 39 91 36 126 -6z"/>
<path d="M8990 8091 c0 -128 4 -192 11 -197 22 -13 29 24 29 169 0 114 3 148
13 145 6 -2 48 -73 92 -156 79 -150 102 -177 134 -157 7 4 11 73 11 196 0 155
-3 189 -14 189 -22 0 -26 -24 -26 -177 0 -103 -3 -144 -11 -141 -6 2 -49 73
-94 158 -77 145 -85 155 -114 158 l-31 3 0 -190z"/>
<path d="M9473 8179 c-97 -28 -124 -195 -42 -263 23 -20 42 -26 75 -26 91 0
134 49 134 152 0 105 -73 165 -167 137z m100 -45 c88 -88 0 -269 -104 -214
-64 35 -65 192 -2 229 33 19 79 13 106 -15z"/>
<path d="M10146 8180 c-109 -34 -130 -211 -32 -271 50 -30 186 -24 186 8 0 10
-5 13 -17 8 -36 -15 -103 -17 -133 -5 -32 13 -60 55 -60 89 0 19 7 21 108 23
l107 3 3 30 c4 34 -20 85 -47 102 -27 17 -82 23 -115 13z m102 -40 c28 -27 39
-69 21 -81 -16 -10 -139 -12 -163 -3 -25 10 -19 43 13 75 37 36 95 40 129 9z"/>
<path d="M10523 8183 c-12 -2 -27 -11 -33 -19 -17 -19 -37 -18 -49 4 -7 12
-13 14 -21 6 -14 -14 -9 -279 5 -279 6 0 11 25 12 55 8 166 28 210 96 210 59
0 71 -25 77 -154 3 -64 9 -111 15 -111 6 0 12 44 15 101 5 110 21 149 65 160
36 9 73 -3 87 -29 6 -12 14 -68 17 -125 8 -138 26 -134 26 7 0 121 -11 154
-56 170 -35 12 -84 -1 -115 -30 l-23 -21 -23 25 c-24 26 -57 37 -95 30z"/>
<path d="M11385 8179 c-17 -4 -44 -22 -60 -39 -24 -25 -30 -40 -33 -93 -3 -53
0 -67 20 -97 13 -19 35 -40 48 -47 48 -25 180 -11 180 18 0 7 -7 8 -17 4 -41
-17 -110 -17 -142 0 -33 16 -67 76 -56 95 4 6 53 10 111 10 120 0 127 5 103
73 -23 64 -87 96 -154 76z m93 -35 c13 -9 28 -27 33 -41 15 -41 -4 -53 -81
-53 -83 0 -100 6 -100 34 1 61 93 99 148 60z"/>
<path d="M11735 8170 c-47 -24 -55 -25 -55 -5 0 8 -7 15 -15 15 -13 0 -15 -20
-13 -142 3 -168 20 -193 28 -43 3 55 11 110 18 123 14 25 50 42 88 42 27 0 32
15 8 24 -20 8 -14 9 -59 -14z"/>
<path d="M9720 8168 c0 -19 89 -250 102 -265 6 -8 21 -13 32 -11 17 2 31 29
73 138 28 74 52 139 52 143 1 5 -6 7 -15 5 -11 -2 -32 -43 -60 -117 -23 -62
-45 -115 -48 -118 -11 -11 -26 11 -51 80 -44 116 -63 157 -74 157 -6 0 -11 -6
-11 -12z"/>
<path d="M1010 6886 c0 -514 2 -574 16 -580 20 -8 1328 -8 1348 0 14 6 16 66
16 580 l0 574 -690 0 -690 0 0 -574z"/>
<path d="M2560 6886 c0 -514 2 -574 16 -580 20 -8 1328 -8 1348 0 14 6 16 66
16 580 l0 574 -690 0 -690 0 0 -574z"/>
<path d="M4110 6886 c0 -514 2 -574 16 -580 20 -8 1328 -8 1348 0 14 6 16 66
16 580 l0 574 -690 0 -690 0 0 -574z"/>
<path d="M5660 6886 c0 -514 2 -574 16 -580 20 -8 1328 -8 1348 0 14 6 16 66
16 580 l0 574 -690 0 -690 0 0 -574z"/>
<path d="M7210 6886 c0 -514 2 -574 16 -580 20 -8 1328 -8 1348 0 14 6 16 66
16 580 l0 574 -690 0 -690 0 0 -574z"/>
<path d="M8760 6886 c0 -514 2 -574 16 -580 20 -8 1328 -8 1348 0 14 6 16 66
16 580 l0 574 -690 0 -690 0 0 -574z"/>
<path d="M10310 6886 c0 -514 2 -574 16 -580 20 -8 1328 -8 1348 0 14 6 16 66
16 580 l0 574 -690 0 -690 0 0 -574z"/>
<path d="M1010 5555 l0 -575 690 0 690 0 0 575 0 575 -690 0 -690 0 0 -575z"/>
<path d="M2560 5555 l0 -575 690 0 690 0 0 575 0 575 -690 0 -690 0 0 -575z"/>
<path d="M4110 5555 l0 -575 690 0 690 0 0 575 0 575 -690 0 -690 0 0 -575z"/>
<path d="M5660 5555 l0 -575 690 0 690 0 0 575 0 575 -690 0 -690 0 0 -575z"/>
<path d="M7210 5555 l0 -575 690 0 690 0 0 575 0 575 -690 0 -690 0 0 -575z"/>
<path d="M8760 5555 l0 -575 690 0 690 0 0 575 0 575 -690 0 -690 0 0 -575z"/>
<path d="M10310 5555 l0 -575 690 0 690 0 0 575 0 575 -690 0 -690 0 0 -575z"/>
<path d="M1010 4245 l0 -575 690 0 690 0 0 575 0 575 -690 0 -690 0 0 -575z"/>
<path d="M2560 4245 l0 -575 690 0 690 0 0 575 0 575 -690 0 -690 0 0 -575z"/>
<path d="M4110 4245 l0 -575 690 0 690 0 0 575 0 575 -690 0 -690 0 0 -575z"/>
<path d="M5660 4245 l0 -575 690 0 690 0 0 575 0 575 -690 0 -690 0 0 -575z"/>
<path d="M7210 4245 l0 -575 690 0 690 0 0 575 0 575 -690 0 -690 0 0 -575z"/>
<path d="M8760 4245 l0 -575 690 0 690 0 0 575 0 575 -690 0 -690 0 0 -575z"/>
<path d="M10310 4245 l0 -575 690 0 690 0 0 575 0 575 -690 0 -690 0 0 -575z"/>
<path d="M1015 3498 c-3 -7 -4 -267 -3 -578 l3 -565 688 -3 687 -2 -2 577 -3
578 -683 3 c-541 2 -684 0 -687 -10z"/>
<path d="M2565 3498 c-3 -7 -4 -267 -3 -578 l3 -565 688 -3 687 -2 -2 577 -3
578 -683 3 c-541 2 -684 0 -687 -10z"/>
<path d="M4115 3498 c-3 -7 -4 -267 -3 -578 l3 -565 688 -3 687 -2 -2 577 -3
578 -683 3 c-541 2 -684 0 -687 -10z"/>
<path d="M5665 3498 c-3 -7 -4 -267 -3 -578 l3 -565 688 -3 687 -2 -2 577 -3
578 -683 3 c-541 2 -684 0 -687 -10z"/>
<path d="M7215 3498 c-3 -7 -4 -267 -3 -578 l3 -565 688 -3 687 -2 -2 577 -3
578 -683 3 c-541 2 -684 0 -687 -10z"/>
<path d="M8765 3498 c-3 -7 -4 -267 -3 -578 l3 -565 688 -3 687 -2 -2 577 -3
578 -683 3 c-541 2 -684 0 -687 -10z"/>
<path d="M10315 3498 c-3 -7 -4 -267 -3 -578 l3 -565 685 0 685 0 0 575 0 575
-683 3 c-541 2 -684 0 -687 -10z"/>
<path d="M1010 1605 l0 -575 690 0 690 0 0 575 0 575 -690 0 -690 0 0 -575z"/>
<path d="M2560 1605 l0 -575 690 0 690 0 0 575 0 575 -690 0 -690 0 0 -575z"/>
<path d="M4110 1605 l0 -575 690 0 690 0 0 575 0 575 -690 0 -690 0 0 -575z"/>
<path d="M5660 1605 l0 -575 690 0 690 0 0 575 0 575 -690 0 -690 0 0 -575z"/>
<path d="M7210 1605 l0 -575 690 0 690 0 0 575 0 575 -690 0 -690 0 0 -575z"/>
<path d="M8760 1605 l0 -575 690 0 690 0 0 575 0 575 -690 0 -690 0 0 -575z"/>
<path d="M10310 1605 l0 -575 690 0 690 0 0 575 0 575 -690 0 -690 0 0 -575z"/>
</g>
</svg>
